<?xml version="1.0" encoding="UTF-8" standalone="no"?>
<svg
   xmlns:dc="http://purl.org/dc/elements/1.1/"
   xmlns:cc="http://creativecommons.org/ns#"
   xmlns:rdf="http://www.w3.org/1999/02/22-rdf-syntax-ns#"
   xmlns:svg="http://www.w3.org/2000/svg"
   xmlns="http://www.w3.org/2000/svg"
   width="211.66667mm"
   height="94.458145mm"
   viewBox="0 0 211.66667 94.458145"
   version="1.1"
   id="svg8">
  <defs
     id="defs2" />
  <metadata
     id="metadata5">
    <rdf:RDF>
      <cc:Work
         rdf:about="">
        <dc:format>image/svg+xml</dc:format>
        <dc:type
           rdf:resource="http://purl.org/dc/dcmitype/StillImage" />
        <dc:title></dc:title>
      </cc:Work>
    </rdf:RDF>
  </metadata>
  <g
     id="layer1"
     transform="translate(195.88475,-51.754817)">
    <path
       style="fill:#000000;fill-opacity:1;stroke-width:0.434296"
       d="m -63.681636,121.62334 c -0.727977,-0.42332 -0.771081,-0.94638 -0.526737,-6.39266 0.146416,-3.26239 0.37057,-6.81107 0.498241,-7.88594 l 0.232099,-1.95435 -1.261048,1.95435 c -1.414309,2.19185 -4.17768,4.82538 -6.1139,5.82664 -1.980095,1.02395 -5.286846,1.63188 -7.157391,1.31586 -2.258089,-0.3815 -4.842904,-2.96853 -5.616381,-5.62121 l -0.580313,-1.99017 -0.928592,1.6459 c -0.510732,0.90525 -1.577123,2.26907 -2.369739,3.03073 -3.901459,3.74897 -7.785798,2.75237 -9.352662,-2.3996 -0.823918,-2.70902 -1.057609,-13.086154 -0.452199,-20.0785 l 0.322214,-3.721427 -2.236947,-0.404383 c -4.233639,-0.765368 -4.070449,-3.346524 0.226009,-3.574716 l 2.452254,-0.13033 v -1.961218 c 0,-2.547424 0.52846,-3.46167 2.348055,-4.062189 1.178222,-0.388856 1.800095,-0.359293 3.00156,0.142805 1.718286,0.717947 2.241099,1.857939 1.837848,4.007447 l -0.278092,1.482281 h 1.877374 c 1.976878,0 3.807832,0.939737 3.807832,1.95434 0,1.042918 -1.844906,1.954325 -3.956004,1.954325 -1.941981,0 -2.036347,0.05827 -2.287421,1.411469 -0.143954,0.7763 -0.390054,5.82847 -0.546729,11.227033 -0.206788,7.124643 -0.149863,9.899043 0.207756,10.120053 1.046448,0.64672 4.794351,-6.83789 6.829385,-13.638336 2.485738,-8.306593 5.582895,-11.840273 9.703469,-11.071129 2.210044,0.412525 5.01537,3.445928 5.880258,6.358308 0.925309,3.115853 0.843927,4.764017 -0.320654,6.494368 -1.096971,1.629895 -4.760586,3.393714 -7.096675,3.416678 -2.107897,0.02068 -2.468439,0.815678 -2.250752,4.962891 0.225928,4.30476 1.012224,5.90785 2.897657,5.90785 2.497935,0 6.050228,-3.87933 9.438132,-10.307007 l 1.778018,-3.373328 0.30442,-6.511914 c 0.203325,-4.349374 0.503478,-6.815695 0.903807,-7.426686 0.715928,-1.092637 3.207198,-2.347497 4.660459,-2.347497 1.777,0 2.085343,0.723068 1.791379,4.200791 -0.147893,1.750229 -0.17263,3.182233 -0.05482,3.182233 0.117691,0 0.847456,-0.315944 1.621524,-0.702091 0.989653,-0.493694 2.131205,-0.642063 3.84606,-0.49985 2.200967,0.182511 2.593647,0.376857 4.028441,1.993654 1.910548,2.152921 2.791834,4.9819 2.699913,8.666822 -0.12442,4.985513 -1.974809,9.511433 -4.892573,11.966563 -1.798701,1.51352 -5.039909,1.72218 -7.443544,0.4792 l -1.153173,-0.59632 -0.314613,6.07635 c -0.284494,5.4946 -0.4023,6.13778 -1.230502,6.71786 -1.059365,0.74201 -3.619461,0.82466 -4.772683,0.15413 z m 11.238079,-17.07436 c 2.258417,-3.44678 2.614181,-12.915101 0.533581,-14.200985 -0.818649,-0.505939 -2.363091,0.516609 -3.301121,2.185603 -1.199577,2.134357 -1.941374,6.883765 -1.430362,9.158082 0.824262,3.6685 2.789798,5.00635 4.197902,2.8573 z M -73.77081,93.350622 c 0.779681,-1.113155 0.876,-3.229604 0.224925,-4.94208 -0.433059,-1.13904 -0.474686,-1.152992 -1.038404,-0.348164 -0.538686,0.769077 -1.984822,5.067797 -1.984822,5.899987 0,0.776071 2.156812,0.306111 2.798301,-0.609743 z m -72.0455,26.110018 c -8.94122,-1.42488 -22.26752,-13.6588 -35.54937,-32.635343 l -3.26689,-4.667615 -0.18425,13.136398 c -0.19732,14.06772 -0.54414,16.67694 -2.6273,19.76586 -2.05693,3.05001 -6.90451,4.03257 -7.53338,1.52696 -0.4423,-1.76226 0.17467,-9.28886 1.38058,-16.84235 1.54396,-9.670953 2.69665,-18.763563 3.0281,-23.886299 l 0.28101,-4.342962 -2.40189,-4.994409 c -2.46808,-5.132042 -3.60533,-9.608562 -3.06164,-12.051574 0.54166,-2.433902 0.69545,-2.714489 1.48767,-2.714489 1.14882,0 2.28647,1.795828 4.13423,6.525981 5.87692,15.044615 16.59674,32.308209 26.24095,42.259372 4.57576,4.7214 8.44027,7.63183 12.90016,9.7153 3.02239,1.41195 3.81583,1.59704 6.95156,1.62163 3.32423,0.0261 3.64154,-0.0538 5.21155,-1.31286 2.26044,-1.81262 4.2485,-5.91786 5.21259,-10.763734 0.66926,-3.363939 0.794,-6.333474 0.82323,-19.599282 0.0335,-15.194025 0.30002,-19.09944 1.55826,-22.833638 0.65206,-1.935152 1.1764,-2.572701 2.11589,-2.572701 1.16124,0 2.07458,2.400925 2.99889,7.883086 1.95296,11.583329 2.25214,26.948007 0.69385,35.63254 -2.75764,15.368719 -9.93884,22.816219 -20.3938,21.150129 z m 107.855211,-4.85825 c -5.049431,-3.40114 -6.271036,-15.143253 -2.375272,-22.831173 2.691609,-5.311632 8.668695,-7.351458 12.052577,-4.11322 1.115929,1.0679 1.562892,1.209852 3.407125,1.082033 1.824438,-0.12639 2.284565,0.01477 3.274826,1.005034 1.109051,1.109051 1.138187,1.260785 0.778811,4.055787 -0.568839,4.424272 -0.478462,12.783079 0.140507,12.990439 0.716437,0.24003 3.265666,-5.29233 4.890817,-10.614053 1.537466,-5.034623 3.219887,-7.601153 5.8870862,-8.98073 2.2265563,-1.151663 6.0867171,-1.220422 7.7389028,-0.13788 1.1445064,0.749922 1.1645155,0.74613 1.1845738,-0.224384 0.01149,-0.542937 0.36674565,-4.774883 0.7900223,-9.404319 0.86349289,-9.444162 0.93417305,-9.606155 4.1912874,-9.606155 1.3447942,0 2.0469834,0.26757 2.796807,1.065717 l 1.0011764,1.065718 -0.7072612,5.774457 c -1.6021219,13.080245 -2.15476,27.870059 -1.1410266,30.536359 0.9408209,2.47456 2.5481625,0.27289 4.9585599,-6.792028 1.764541,-5.171896 1.880246,-5.375303 3.057696,-5.375303 2.020195,0 2.247124,0.968939 1.210459,5.168187 C 12.84976,108.69212 7.908206,114.13514 3.1144302,112.55304 1.9489791,112.1684 1.3981958,111.5703 0.47861509,109.69075 l -1.16248013,-2.37604 -1.04222866,1.53376 c -1.9340691,2.84625 -5.8164879,4.00935 -8.9524973,2.68202 -1.614383,-0.6833 -2.484737,-1.59206 -3.667604,-3.82945 l -0.844846,-1.59802 -1.482609,2.19091 c -2.727851,4.03105 -6.363939,4.90403 -9.033076,2.16873 l -1.135445,-1.1636 -1.302889,2.15693 c -0.716584,1.18631 -1.966947,2.6032 -2.77857,3.14864 -2.005226,1.34761 -5.034854,1.34664 -7.037436,-0.002 z m 6.282442,-4.76046 c 3.229554,-4.25717 4.307813,-14.553562 1.872843,-17.883606 -0.938194,-1.283043 -2.669185,-0.578589 -3.950439,1.607703 -2.110146,3.600683 -3.05274,10.817493 -1.941456,14.864453 0.889428,3.23897 2.265951,3.72239 4.019052,1.41145 z m 26.7191677,-2.75039 c 2.5681387,-3.26486 3.9106021,-11.524834 2.3587245,-14.512885 -2.2320715,-4.297701 -6.3351975,0.314532 -6.9539689,7.816805 -0.4967473,6.02254 2.1226535,9.83946 4.5952444,6.69608 z M -113.7095,108.91099 c -1.86139,-0.81106 -3.99566,-3.40965 -4.58118,-5.57781 -0.70965,-2.62785 -0.28797,-8.352811 0.79543,-10.799221 1.13907,-2.572111 3.39962,-5.137197 5.18455,-5.882982 2.98332,-1.246522 7.37757,-0.291814 9.55403,2.075708 1.98528,2.159553 2.95204,5.110031 2.898578,8.846379 -0.07633,5.334066 -2.292948,9.439296 -6.008048,11.126826 -2.06228,0.93676 -5.93852,1.04109 -7.84336,0.2111 z m 7.20662,-6.45949 c 0.71163,-2.635105 0.32192,-8.420093 -0.70963,-10.533883 -1.96814,-4.033037 -4.50901,-1.221687 -4.52262,5.004011 -0.008,4.087232 0.57486,6.229752 2.00375,7.353712 1.50137,1.18097 2.58189,0.57057 3.2285,-1.82384 z"
       id="path24" />
    <text
       xml:space="preserve"
       style="font-style:normal;font-weight:normal;font-size:11.7127px;line-height:1.25;font-family:sans-serif;letter-spacing:5.10559px;word-spacing:2.04224px;fill:#000000;fill-opacity:1;stroke:none;stroke-width:0.292817"
       x="-162.49118"
       y="146.08412"
       id="text42"><tspan
         id="tspan40"
         x="-162.49118"
         y="146.08412"
         style="font-style:normal;font-variant:normal;font-weight:200;font-stretch:normal;font-family:Oswald;-inkscape-font-specification:'Oswald Ultra-Light';stroke-width:0.292817">BY ANNA WRÓBEL</tspan></text>
  </g>
</svg>
